<svg xmlns="http://www.w3.org/2000/svg" viewBox="0 0 515.38 368.31"><defs><style>.cls-1{fill:#42b5e8;}.cls-2{fill:#f1f2f2;}.cls-3{fill:none;stroke:#231f20;stroke-linecap:round;stroke-linejoin:round;stroke-width:4px;}</style></defs><title>mailRisorsa 27</title><g id="Livello_2" data-name="Livello 2"><g id="Livello_6" data-name="Livello 6"><path class="cls-1" d="M38.29,110.25c-9.17,27-17.48,52.06-21,94-3.37,40.18-5.06,60.27,6,74,11.83,14.68,24,10.08,50,32,16.54,13.95,16.07,19.57,30,31,22.44,18.42,47.1,23.07,59,25.31,21.11,4,44.18,3.15,122-24.31,67.58-23.84,101.38-35.77,113-50,23.43-28.69,25.86-63.85,49-112,5.5-11.44,8.93-23.85,15-35,4.29-7.9,7.94-13.32,7.25-21-.62-6.86-4.34-11.46-11-19.5C444.34,88.83,437.12,88.86,434,78.92c-2.83-8.88,1.94-12,.33-21.34C431.63,42.17,415.65,32.83,409,28.92c-40.5-23.67-144.12-.29-220.67,13.33-34.51,6.14-69.1,12.23-104,15.5a40.27,40.27,0,0,0-12,2.83C55.12,67.63,46.61,85.77,38.29,110.25Z"/></g><g id="Livello_5" data-name="Livello 5"><path class="cls-2" d="M18.62,6.42s-3,61.5-2.16,95.5-3.67,50.33,4.08,53.83S132.79,168.5,181.29,173.5s59.25,7.42,59.25,7.42l6.75-155.6S115,8.92,18.62,6.42Z"/><path class="cls-2" d="M212.79,200.08s-48,19-68.5,36.34-26.5,52.83-5,79.83,40,29.56,82.48,27.78c38.37-1.61,157.47-26.6,180.34-31.46a7.65,7.65,0,0,1,6.62,1.71c5.29,4.64,17.45,14.58,30.89,20.8,10.92,5.06,24.79,7.63,34,8.87a1.47,1.47,0,0,0,.85-2.78c-10.08-5.07-25.13-15.43-27-32.73a4.38,4.38,0,0,1,2.39-4.43c10.49-5.16,49.88-25.8,60-49.43,11.73-27.33,7.4-68.08-40.35-82.08s-206.25,7.42-261.92,35.42C207.62,207.92,207.62,204.75,212.79,200.08Z"/></g><g id="Livello_4" data-name="Livello 4"><path class="cls-3" d="M16.46,8.58S76.79,87.75,128.29,135.25c0,0,66.2-44,118.6-105"/><path class="cls-3" d="M9.62,7.25S13.29,64.5,8.54,99.5C5.3,123.4,3.1,145.08,2,156.43a7.88,7.88,0,0,0,7.56,8.62c22.84.84,87.23,3.35,122.19,6.2,34.35,2.8,84,8.78,102.61,11.08a7.88,7.88,0,0,0,8.77-6.76c1.07-7.68,2.62-22.48,4.12-50"/><path class="cls-3" d="M13,2S186.65,17,240.45,24.33a15.61,15.61,0,0,1,13.48,16.45c-1.34,21.61-4,62-5.64,75.8"/><path class="cls-3" d="M159.29,221.25s-44.5,19-35,74.5S189,353.25,291,333.92C371.61,318.63,404.33,312.1,414.49,310a4.75,4.75,0,0,1,5.22,2.54,43.49,43.49,0,0,0,27.91,23,90.45,90.45,0,0,0,33.61,1.92,3.31,3.31,0,0,0,1.12-6.21c-9.08-4.79-22.69-13.66-30.8-26.9a4.33,4.33,0,0,1,2.15-6.34c11.64-4.37,41.53-19.34,53.09-60.8,14.5-52-25-79-52.5-79s-53.4,6.83-78,9.75c-29.29,3.48-164,23.25-207.33,47.25"/></g></g></svg>